<svg id="Capa_1" enable-background="new 0 0 504.723 504.723" height="512" viewBox="0 0 504.723 504.723" width="512" xmlns="http://www.w3.org/2000/svg"><g><g><path d="m308.734 98.457c68.782 23.724 116.847 89.607 116.847 163.802 0 .324-.013.646-.015.969 10.605.307 20.614 3.004 29.516 7.577.12-2.845.188-5.693.188-8.546 0-46.695-16.252-92.28-45.763-128.362-23.32-28.513-54.058-50.135-88.352-62.529-2.15 9.995-6.458 19.197-12.421 27.089z"/><path d="m213.853 39.586v17.194c0 21.863 17.724 39.586 39.586 39.586 21.862 0 39.586-17.723 39.586-39.586v-17.194c0-21.179-16.631-38.473-37.545-39.535-.642-.024-1.284-.048-1.931-.048-.037 0-.072-.003-.109-.003-.685 0-1.363.027-2.041.051-20.915 1.062-37.546 18.357-37.546 39.535z"/><path d="m423.543 389.232c21.862 0 39.586-17.723 39.586-39.586v-17.194c0-21.862-17.724-39.586-39.586-39.586-21.862 0-39.586 17.724-39.586 39.586v17.194c0 21.863 17.723 39.586 39.586 39.586z"/><path d="m120.768 349.646v-17.194c0-21.862-17.724-39.586-39.586-39.586s-39.586 17.724-39.586 39.586v17.194c0 21.863 17.724 39.586 39.586 39.586s39.586-17.723 39.586-39.586z"/><path d="m174.316 222.822h158.294v-25.96c-2.013-35.347-17.245-67.352-39.362-83.44-11.273 7.946-25.001 12.633-39.811 12.633-14.25 0-27.506-4.329-38.53-11.734-22.113 16.396-37.6 46.931-40.642 82.541z"/><path d="m79.217 263.226c-.002-.323-.016-.645-.016-.968 0-75.458 48.626-141.246 118.503-164.391-5.876-7.95-10.099-17.191-12.145-27.217-80.365 27.931-136.046 104.232-136.046 191.608 0 2.841.072 5.68.191 8.515 8.903-4.563 18.911-7.249 29.513-7.547z"/><g><path d="m362.25 432.858c-10.451 17.197-16.139 37.038-17.88 57.021v14.845h158.345v-14.845c-1.921-30.343-13.12-62.276-37.296-81.888-.072-.057-.145-.113-.217-.169-.641-.502-1.289-.992-1.943-1.466-11.255 7.906-24.947 12.567-39.717 12.567-14.207 0-27.428-4.301-38.432-11.667-8.786 6.491-16.525 15.212-22.86 25.602z"/><path d="m340.823 411.273c-26.408 15.766-56.661 24.174-88.432 24.174-30.746 0-60.07-7.871-85.864-22.664.817 1.28 1.624 2.577 2.409 3.903 6.65 11.229 11.82 23.625 15.413 36.752 21.765 7.763 44.587 11.699 68.043 11.699 23.721 0 46.792-4.03 68.781-11.97 4.575-15.522 11.253-29.674 19.65-41.894z"/><path d="m120.91 406.364c-11.255 7.908-24.959 12.558-39.729 12.558-14.206 0-27.424-4.305-38.429-11.67-3.456 2.553-6.749 5.451-9.86 8.659-16.227 16.858-25.629 39.567-29.437 62.475-.631 3.81-1.11 7.638-1.447 11.491v14.845h158.345v-14.845c-1.144-19.337-6.145-38.592-15.548-55.58-6.417-11.527-14.54-21.151-23.895-27.933z"/></g></g></g></svg>