<svg width="70" height="62" viewBox="0 0 70 62" fill="none" xmlns="http://www.w3.org/2000/svg">
<path d="M1.39962 42.9314L4.26962 44.5538C4.05962 45.677 4.12962 46.8626 4.26962 48.0482L1.39962 49.6706C0.909616 49.9202 0.699616 50.5442 0.979616 51.0434L1.60962 52.4162L2.23962 53.789C2.51962 54.2882 3.14962 54.5378 3.70962 54.413L6.99962 53.7266C7.83962 54.6626 8.74962 55.4738 9.79962 56.1602L9.09962 59.093C8.95962 59.6546 9.30962 60.2162 9.86962 60.4034L11.4096 60.965L12.9496 61.5266C13.5096 61.7138 14.2096 61.5266 14.4896 61.0898L16.3096 58.5314C17.6396 58.7186 18.9696 58.7186 20.2996 58.469L22.1196 61.0274C22.4696 61.5266 23.0996 61.7138 23.7296 61.4642L25.2696 60.9026L26.8096 60.341C27.3696 60.1538 27.7196 59.5922 27.5796 59.0306L26.8096 56.0354C27.8596 55.2866 28.7696 54.4754 29.5396 53.5394L32.8296 54.2258C33.4596 54.3506 34.0896 54.0386 34.2996 53.5394L34.9296 52.1666L35.5596 50.7938C35.7696 50.2946 35.5596 49.6706 35.0696 49.421L32.1296 47.7986C32.2696 46.6754 32.2696 45.4898 32.0596 44.3042L34.9296 42.6818C35.4896 42.3698 35.6996 41.8082 35.4196 41.2466L34.7896 39.8738L34.1596 38.501C33.9496 38.0018 33.3196 37.6898 32.6896 37.8146L29.3296 38.501C28.4896 37.565 27.5796 36.7538 26.5296 36.0674L27.2296 33.1346C27.3696 32.573 27.0196 32.0114 26.4596 31.8242L24.9196 31.2626L23.3796 30.701C22.8196 30.5138 22.1196 30.701 21.8396 31.1378L20.0196 33.7586C18.7596 33.6338 17.4996 33.6338 16.1696 33.821L14.3496 31.2626C13.9996 30.7634 13.2996 30.5762 12.7396 30.8258L11.1996 31.3874L9.65962 31.949C9.09962 32.1362 8.74962 32.6978 8.88962 33.2594L9.65962 36.1922C8.60962 36.941 7.69962 37.7522 6.92962 38.6882L3.63962 38.0642C3.00962 37.9394 2.37962 38.2514 2.16962 38.7506L1.53962 40.1234L0.909616 41.4962C0.629616 42.0578 0.839616 42.6194 1.39962 42.9314ZM15.4696 40.7474C18.8296 39.4994 22.7496 40.8722 24.2196 43.8674C25.6196 46.8626 24.0796 50.357 20.7196 51.6674C17.3596 52.9778 13.4396 51.5426 11.9696 48.5474C10.4996 45.5522 12.1096 41.9954 15.4696 40.7474ZM26.1796 21.653C26.1796 22.3394 26.7396 22.901 27.4396 23.0258L31.4296 23.6498C31.7796 25.0226 32.4096 26.2706 33.2496 27.5186L30.8696 30.4514C30.4496 31.013 30.5196 31.7618 31.0096 32.1986L32.4096 33.4466L33.8096 34.6946C34.3696 35.1314 35.2096 35.1938 35.7696 34.8194L39.0596 32.6978C40.4596 33.3842 41.8596 33.9458 43.3996 34.3202L44.0996 37.877C44.2396 38.5634 44.8696 39.0002 45.6396 39.0002H47.6696H49.6996C50.4696 39.0002 51.0996 38.501 51.2396 37.877L51.9396 34.3202C53.4796 34.0082 54.9496 33.4466 56.3496 32.6354L59.6396 34.6946C60.2696 35.069 61.1096 35.0066 61.5996 34.5698L62.9996 33.3218L64.3996 32.0738C64.8896 31.637 65.0296 30.8258 64.5396 30.3266L62.1596 27.3314C62.9296 26.0834 63.5596 24.773 63.9096 23.4626L67.8996 22.901C68.6696 22.7762 69.1596 22.2146 69.1596 21.5282V19.7186V17.909C69.1596 17.2226 68.5996 16.661 67.8996 16.5362L63.8396 15.9122C63.4196 14.6018 62.8596 13.2914 62.0196 12.1058L64.3296 9.17302C64.7496 8.61142 64.6796 7.86262 64.1896 7.42582L62.7896 6.17782L61.3896 4.92982C60.8996 4.49302 59.9896 4.36822 59.4296 4.80502L56.0696 6.92662C54.6696 6.24022 53.1996 5.67862 51.7296 5.36662L51.0996 1.87222C50.9596 1.18582 50.3296 0.749023 49.5596 0.749023H47.5296H45.4996C44.7296 0.749023 44.0996 1.24822 43.9596 1.87222L43.2596 5.49142C41.7896 5.80342 40.3896 6.36502 39.0596 7.05142L35.7696 4.92982C35.1396 4.55542 34.2996 4.61782 33.8096 5.05462L32.4096 6.30262L31.0096 7.55062C30.5196 7.98742 30.3796 8.79862 30.8696 9.29782L33.2496 12.2306C32.4796 13.4786 31.8496 14.7266 31.4296 16.0994L27.4396 16.7234C26.6696 16.8482 26.1796 17.4098 26.1796 18.0962V19.9058V21.653ZM41.0196 14.1026C44.6596 10.8578 50.5396 10.8578 54.2496 14.1026C57.9596 17.3474 57.8896 22.589 54.2496 25.8962C50.6096 29.141 44.7296 29.141 41.0196 25.8962C37.3796 22.589 37.3796 17.3474 41.0196 14.1026ZM43.6796 23.4626C41.5096 21.5282 41.5096 18.4082 43.6796 16.5362C45.8496 14.6018 49.3496 14.6018 51.4496 16.5362C53.6196 18.4706 53.6196 21.5906 51.4496 23.4626C49.3496 25.3346 45.8496 25.3346 43.6796 23.4626Z" fill="black"/>
</svg>
