<svg width="66" height="60" viewBox="0 0 66 60" fill="none" xmlns="http://www.w3.org/2000/svg">
<path d="M8.9375 57H19.875V43H28.625V46H37.375V43H46.125V31H54.9852C55.492 33.2822 57.6981 35 60.3438 35C63.364 35 65.8125 32.7614 65.8125 30C65.8125 27.5811 63.9336 25.5642 61.4375 25.1008V12H59.25L50.5 16L59.25 20V25.1008C57.1074 25.4985 55.4203 27.041 54.9852 29H46.125V16H37.375V13H28.625V16H19.875V3H8.9375V0H0.1875V8H8.9375V5H17.6875V29H8.9375V26H0.1875V34H8.9375V31H17.6875V55H8.9375V52H0.1875V60H8.9375V57ZM19.875 18H28.625V21H37.375V18H43.9375V41H37.375V38H28.625V41H19.875V18Z" fill="black"/>
</svg>
