<svg width="65" height="71" viewBox="0 0 65 71" fill="none" xmlns="http://www.w3.org/2000/svg">
<path d="M37.2088 0.619215C30.7704 0.60531 24.5407 2.53091 19.6563 6.04466L14.4458 1.68722C14.2484 1.52145 14.0139 1.38993 13.7557 1.3002C13.4976 1.21046 13.2208 1.16427 12.9413 1.16427C12.6618 1.16427 12.385 1.21046 12.1269 1.3002C11.8687 1.38993 11.6342 1.52145 11.4368 1.68722C8.05068 4.52357 5.36466 7.89081 3.53211 11.5967C1.69955 15.3026 0.756348 19.2745 0.756348 23.2857C0.756348 27.297 1.69955 31.2689 3.53211 34.9748C5.36466 38.6807 8.05068 42.0479 11.4368 44.8843C17.7322 50.1807 26.1413 53.3426 35.0498 53.7629V58.5404H23.8978C22.7969 58.5376 21.7061 58.7167 20.6879 59.0674C19.6697 59.4182 18.7441 59.9337 17.9641 60.5844C17.184 61.2352 16.5648 62.0084 16.142 62.8599C15.7191 63.7114 15.5009 64.6243 15.4998 65.5465V68.8075C15.4998 69.2795 15.7237 69.7323 16.1222 70.0661C16.5207 70.3999 17.0612 70.5875 17.6248 70.5875H56.7248C57.2884 70.5875 57.8289 70.3999 58.2274 70.0661C58.6259 69.7323 58.8498 69.2795 58.8498 68.8075V65.5465C58.8453 63.6914 57.9636 61.9134 56.3976 60.6016C54.8316 59.2899 52.7089 58.5513 50.4943 58.5475H39.2998V53.7629C48.2427 53.3522 56.6863 50.1787 62.9978 44.8558C63.1957 44.6904 63.3527 44.494 63.4598 44.2778C63.567 44.0615 63.6221 43.8297 63.6221 43.5955C63.6221 43.3614 63.567 43.1296 63.4598 42.9133C63.3527 42.6971 63.1957 42.5006 62.9978 42.3353L57.7873 37.9707C61.1416 34.6785 63.2995 30.6501 64.0055 26.3624C64.7115 22.0748 63.936 17.7075 61.7709 13.7775C59.6057 9.84762 56.1415 6.51966 51.7885 4.18768C47.4355 1.85569 42.3759 0.61733 37.2088 0.619215ZM54.5998 65.5465V67.0275H19.7498V65.5465C19.752 64.635 20.1853 63.7614 20.9548 63.1169C21.7242 62.4723 22.7671 62.1094 23.8553 62.1075H50.5283C51.6106 62.1169 52.6448 62.4831 53.4069 63.1268C54.169 63.7706 54.5976 64.6399 54.5998 65.5465ZM57.0648 13.9407L49.6698 20.1636C47.2701 17.3185 44.3128 14.8342 40.9233 12.8158L48.2078 6.71394C48.2588 6.67122 48.2928 6.62138 48.3353 6.57866C52.0056 8.30206 55.0378 10.8395 57.0988 13.9123L57.0648 13.9407ZM18.2028 12.7303C18.8823 16.4244 20.3202 19.9919 22.4528 23.2751L15.4998 29.0921C14.4644 26.3687 14.1697 23.4858 14.6374 20.6546C15.1051 17.8234 16.3234 15.1158 18.2028 12.7303ZM22.1638 10.6798C26.302 11.0247 30.3327 11.9893 34.0638 13.5278L25.5638 20.6478C23.7268 17.5225 22.5752 14.1462 22.1638 10.6798ZM17.5313 32.4314L24.7563 26.3794C27.1582 29.2168 30.1154 31.6939 33.5028 33.7059L26.0738 39.9287C22.4009 38.2043 19.3704 35.6609 17.3188 32.5809C17.3935 32.535 17.4645 32.4851 17.5313 32.4314ZM37.2003 35.6354C41.1223 37.4226 45.3843 38.6271 49.7973 39.1954C46.9476 40.7723 43.7123 41.7942 40.3291 42.1861C36.9459 42.5779 33.5009 42.3296 30.2473 41.4595L37.2003 35.6354ZM40.3538 32.9939L48.8538 25.8739C50.6904 28.9992 51.8421 32.3755 52.2538 35.8419C48.1156 35.497 44.0849 34.5323 40.3538 32.9939ZM36.5628 31.1355C33.1215 29.1799 30.1561 26.6935 27.8248 23.8091L37.8548 15.4075C41.2991 17.3623 44.2675 19.8488 46.6013 22.7339L36.5628 31.1355ZM44.1703 5.08346L37.2258 10.9005C33.3036 9.11366 29.0416 7.9092 24.6288 7.3405C27.4785 5.76357 30.7138 4.74163 34.097 4.34981C37.4802 3.95799 40.9252 4.20625 44.1788 5.07634L44.1703 5.08346ZM4.9938 23.2679C4.96761 16.7156 7.81034 10.3826 12.9838 5.46794L16.6473 8.54378C12.1975 12.8739 9.86595 18.4528 10.1198 24.1623C10.3737 29.8718 13.1942 35.2899 18.0162 39.3308C22.8382 43.3717 29.3052 45.7368 36.1212 45.952C42.9372 46.1672 49.5984 44.2166 54.7698 40.4912L58.4333 43.5599C53.7771 46.9757 48.0448 49.1956 41.9221 49.9541C35.7993 50.7127 29.5452 49.9777 23.908 47.8371C18.2708 45.6966 13.4891 42.2411 10.1348 37.8839C6.78052 33.5268 4.99569 28.4525 4.9938 23.2679ZM56.2233 33.8127C55.545 30.1161 54.1071 26.546 51.9733 23.2608L58.9178 17.4438C59.9565 20.1691 60.2529 23.0548 59.7851 25.8887C59.3174 28.7227 58.0974 31.4327 56.2148 33.8198L56.2233 33.8127Z" fill="black"/>
</svg>
