<svg width="39" height="35" viewBox="0 0 39 35" fill="none" xmlns="http://www.w3.org/2000/svg">
<path d="M11.6607 15.6334C11.6607 16.0014 11.3487 16.2958 10.9587 16.2958H8.93072C8.54072 16.2958 8.22872 16.0014 8.22872 15.6334V13.7198C8.22872 13.3518 8.54072 13.0574 8.93072 13.0574H10.9587C11.3487 13.0574 11.6607 13.3518 11.6607 13.7198V15.6334ZM16.3407 13.7566C16.3407 13.3886 16.0287 13.0942 15.6387 13.0942H13.6107C13.2207 13.0942 12.9087 13.3886 12.9087 13.7566V15.6702C12.9087 16.0382 13.2207 16.3326 13.6107 16.3326H15.6387C16.0287 16.3326 16.3407 16.0382 16.3407 15.6702V13.7566ZM21.0207 13.7566C21.0207 13.3886 20.7087 13.0942 20.3187 13.0942H18.2907C17.9007 13.0942 17.5887 13.3886 17.5887 13.7566V15.6702C17.5887 16.0382 17.9007 16.3326 18.2907 16.3326H20.3187C20.7087 16.3326 21.0207 16.0382 21.0207 15.6702V13.7566ZM16.3407 18.0622C16.3407 17.6942 16.0287 17.3998 15.6387 17.3998H13.6107C13.2207 17.3998 12.9087 17.6942 12.9087 18.0622V19.9758C12.9087 20.3438 13.2207 20.6382 13.6107 20.6382H15.6387C16.0287 20.6382 16.3407 20.3438 16.3407 19.9758V18.0622ZM21.0207 18.0622C21.0207 17.6942 20.7087 17.3998 20.3187 17.3998H18.2907C17.9007 17.3998 17.5887 17.6942 17.5887 18.0622V19.9758C17.5887 20.3438 17.9007 20.6382 18.2907 20.6382H20.3187C20.7087 20.6382 21.0207 20.3438 21.0207 19.9758V18.0622ZM25.7397 19.939V18.0254C25.7397 17.6574 25.4277 17.363 25.0377 17.363H23.0097C22.6197 17.363 22.3077 17.6574 22.3077 18.0254V19.939C22.3077 20.307 22.6197 20.6014 23.0097 20.6014H25.0377C25.3887 20.6382 25.7397 20.307 25.7397 19.939ZM10.9587 17.363H8.93072C8.54072 17.363 8.22872 17.6574 8.22872 18.0254V19.939C8.22872 20.307 8.54072 20.6014 8.93072 20.6014H10.9587C11.3487 20.6014 11.6607 20.307 11.6607 19.939V18.0254C11.6607 17.6942 11.3487 17.363 10.9587 17.363ZM20.3187 21.6686H18.2907C17.9007 21.6686 17.5887 21.963 17.5887 22.331V24.2446C17.5887 24.6126 17.9007 24.907 18.2907 24.907H20.3187C20.7087 24.907 21.0207 24.6126 21.0207 24.2446V22.331C21.0207 21.963 20.7087 21.6686 20.3187 21.6686ZM15.6387 21.6686H13.6107C13.2207 21.6686 12.9087 21.963 12.9087 22.331V24.2446C12.9087 24.6126 13.2207 24.907 13.6107 24.907H15.6387C16.0287 24.907 16.3407 24.6126 16.3407 24.2446V22.331C16.3407 21.963 16.0287 21.6686 15.6387 21.6686ZM9.16472 0.140625C8.54072 0.140625 8.03372 0.619025 8.03372 1.20782V4.44623C8.03372 5.03503 8.54072 5.51342 9.16472 5.51342H10.7247C11.3487 5.51342 11.8557 5.03503 11.8557 4.44623V1.20782C11.8557 0.619025 11.3487 0.140625 10.7247 0.140625H9.16472ZM23.2437 0.140625C22.6197 0.140625 22.1127 0.619025 22.1127 1.20782V4.44623C22.1127 5.03503 22.6197 5.51342 23.2437 5.51342H24.8037C25.4277 5.51342 25.9347 5.03503 25.9347 4.44623V1.20782C25.9347 0.619025 25.4277 0.140625 24.8037 0.140625H23.2437ZM21.8007 27.5566H3.54872V10.0398H30.4197V19.1294C30.5757 19.1294 30.7317 19.1294 30.8487 19.1294C31.6677 19.1294 32.4867 19.2398 33.2277 19.4238V5.40302C33.2277 4.11502 32.1357 3.08462 30.7707 3.08462H27.3777V4.48302C27.3777 5.80782 26.2467 6.87502 24.8427 6.87502H23.2827C21.8787 6.87502 20.7477 5.80782 20.7477 4.48302V3.04782H13.2597V4.44623C13.2597 5.77102 12.1287 6.83822 10.7247 6.83822H9.16472C7.76072 6.83822 6.62972 5.77102 6.62972 4.44623V3.04782H3.19772C1.83272 3.04782 0.740723 4.07822 0.740723 5.36622V27.851C0.740723 29.139 1.83272 30.1694 3.19772 30.1694H22.2297C21.9567 29.3598 21.8007 28.5134 21.8007 27.6302C21.8007 27.6302 21.8007 27.5934 21.8007 27.5566ZM38.2587 27.667C38.2587 31.4942 34.9047 34.659 30.8487 34.659C26.7927 34.659 23.4387 31.531 23.4387 27.667C23.4387 23.8398 26.7537 20.675 30.8487 20.675C34.9047 20.6382 38.2587 23.7662 38.2587 27.667ZM33.6957 29.6174L31.9017 27.5934C31.8237 27.5198 31.7847 27.3726 31.7847 27.299L31.5117 23.5454C31.4727 23.2142 31.1607 22.9198 30.8097 22.9198C30.4587 22.9198 30.1467 23.1774 30.1077 23.5086V23.5454L29.7957 27.7038C29.7957 27.7406 29.7957 27.7406 29.7957 27.7774C29.7957 27.7774 29.7957 27.7774 29.7957 27.8142C29.7957 28.0718 29.8737 28.3294 30.1077 28.4766C30.1467 28.5134 30.1857 28.5502 30.2247 28.587L32.6817 30.5374C32.7987 30.6478 32.9937 30.6846 33.1497 30.6846C33.3447 30.6846 33.5397 30.611 33.6567 30.5006C33.8907 30.2798 33.8907 29.9118 33.6957 29.6174Z" fill="#2C114E"/>
</svg>
