<svg width="50" height="32" viewBox="0 0 50 32" fill="none" xmlns="http://www.w3.org/2000/svg">
<path fill-rule="evenodd" clip-rule="evenodd" d="M1.766 13.346C1.766 10.3569 3.307 7.64528 5.797 5.67699C11.258 1.36179 20.176 1.36179 25.637 5.67699C28.128 7.64528 29.668 10.3569 29.668 13.346C29.668 20.1139 22.414 24.2491 15.718 24.2491C14.968 24.2491 14.269 24.1989 13.527 24.1182L5.541 28.2914L7.259 22.0311C4.02 19.9107 1.766 17.1638 1.766 13.346ZM33.486 9.85948C37.335 8.50182 42.062 9.06047 45.229 11.5633C48.16 13.8796 49.158 17.5099 47.273 20.68C46.434 22.0914 45.391 22.9164 44.01 23.8212L45.237 28.2914L39.504 25.2958C37.622 25.4638 36.137 25.449 34.242 24.9191C32.643 24.4708 31.15 23.7099 29.943 22.6353C29.229 21.9986 27.968 23.1429 28.72 23.811C30.088 25.0258 31.761 25.9037 33.559 26.4336C35.446 26.9904 37.196 27.1129 39.134 26.9792L46.17 30.656L47.966 31.5932L47.457 29.741L46.016 24.4894C47.176 23.6421 48.133 22.6167 48.818 21.4669C51.112 17.6101 49.946 13.1455 46.368 10.3198C42.707 7.42627 37.322 6.75347 32.869 8.32736C31.934 8.65865 32.522 10.2001 33.486 9.85948ZM40.339 11.696C38.991 10.6353 36.655 10.7522 35.361 11.8166C34.556 12.4783 34.214 13.3553 34.214 14.3389C34.214 14.8363 34.579 15.1806 35.123 15.1435C35.578 15.1444 35.931 14.7241 35.931 14.3232C35.931 13.9037 36.021 13.487 36.27 13.1316C36.852 12.2992 38.561 12.2333 39.263 12.9117C39.773 13.4026 39.737 14.2582 39.403 14.8252C39.141 15.266 38.687 15.6576 38.272 15.9778C37.128 16.8566 36.807 17.8319 36.807 19.1757C36.807 19.636 37.168 19.9691 37.664 19.9691C38.143 19.9691 38.522 19.622 38.522 19.1757C38.522 17.998 38.684 17.5693 39.661 16.813C40.162 16.4251 40.646 15.9685 40.965 15.4358C41.668 14.2601 41.473 12.5897 40.339 11.696ZM38.532 21.6098C38.097 21.1449 37.213 21.1328 36.793 21.621C36.428 22.0413 36.427 22.7002 36.808 23.1113C37.219 23.5865 38.108 23.5605 38.533 23.1039C38.922 22.6872 38.922 22.0274 38.532 21.6098ZM14.216 13.3469C14.216 14.1153 14.887 14.738 15.716 14.738C16.545 14.738 17.215 14.1153 17.215 13.3469C17.215 12.5776 16.544 11.9549 15.716 11.9549C14.887 11.954 14.216 12.5776 14.216 13.3469ZM20.91 13.346C20.91 14.1144 21.582 14.7361 22.41 14.7361C23.238 14.7361 23.909 14.1134 23.909 13.346C23.909 12.5776 23.237 11.9549 22.41 11.9549C21.582 11.9549 20.91 12.5776 20.91 13.346ZM9.021 14.738C9.85 14.738 10.521 14.1144 10.521 13.3469C10.521 12.5776 9.85 11.9549 9.021 11.9549C8.194 11.9549 7.521 12.5785 7.521 13.3469C7.522 14.1144 8.194 14.738 9.021 14.738ZM4.659 4.43439C1.781 6.70892 0 9.85948 0 13.346C0 17.1118 2.079 20.4443 5.253 22.7058L2.811 31.596L13.896 25.8034C14.497 25.8601 15.115 25.8879 15.718 25.8879C23.393 25.8879 31.434 21.028 31.434 13.346C31.434 9.85948 29.654 6.70892 26.776 4.43439C20.651 -0.406053 10.783 -0.406981 4.659 4.43439Z" fill="#2C114E"/>
</svg>
