<svg width="68" height="76" viewBox="0 0 68 76" fill="none" xmlns="http://www.w3.org/2000/svg">
<path d="M25.5998 71.1204H0.0498047V61.6804C0.0498047 59.6804 0.819805 57.7604 2.1498 56.5604C9.6398 49.5204 17.7598 44.8804 19.3698 43.9204C19.5798 43.8404 19.6498 43.6004 19.6498 43.3604V38.4004C18.5298 36.2404 17.9698 33.8404 17.6198 31.6804C16.9898 31.6004 16.0798 30.5604 15.1698 26.8004C13.9098 21.6804 15.2398 20.8804 16.4298 21.0404C16.4298 21.0404 13.2798 8.88035 20.9098 3.52035C20.9098 3.52035 19.5798 2.24035 19.6498 0.480354C19.6498 0.480354 27.0698 1.44035 30.6398 0.560354C34.2098 -0.319646 38.0598 2.96035 38.6898 6.00035C38.6898 6.00035 46.3198 5.36035 43.0298 20.8804C43.0298 20.8804 42.9598 21.2004 42.8898 21.7604H43.0998C43.9398 22.0804 44.5698 23.4404 43.5898 27.4404C42.3998 32.4004 41.2798 32.6404 40.5798 32.1604C40.2998 33.8404 39.8798 35.7604 39.1098 37.5204C39.1098 40.0004 39.1098 42.3204 39.1098 43.2004C39.1098 43.4404 39.2498 43.6804 39.3898 43.7604C40.0898 44.1604 41.9098 45.2004 44.2898 46.8004C40.9298 50.1604 38.8298 55.0404 38.8298 60.4804C38.8298 64.4004 39.9498 68.0804 41.7698 71.0404H33.2998L30.7798 57.8404C35.8898 49.7604 30.4298 49.3604 29.4498 49.3604C28.4698 49.3604 23.0098 49.7604 28.1198 57.8404L25.5998 71.1204ZM67.9498 60.5604C67.9498 68.8004 62.0698 75.5204 54.8598 75.5204C47.6498 75.5204 41.7698 68.8004 41.7698 60.5604C41.7698 52.3204 47.6498 45.6004 54.8598 45.6004C62.0698 45.6004 67.9498 52.3204 67.9498 60.5604ZM61.5798 57.2804L59.0598 54.4004L53.1798 61.0404L50.7298 58.2404L48.1398 61.1204L50.5898 63.9204L53.1098 66.8004L55.6998 63.9204L61.5798 57.2804Z" fill="black"/>
</svg>
